<svg width="22" height="29" viewBox="0 0 22 29" fill="none" xmlns="http://www.w3.org/2000/svg">
<path d="M17 28C17 28.2652 16.8946 28.5196 16.7071 28.7071C16.5196 28.8947 16.2652 29 16 29H6C5.73479 29 5.48043 28.8947 5.2929 28.7071C5.10536 28.5196 5 28.2652 5 28C5 27.7348 5.10536 27.4804 5.2929 27.2929C5.48043 27.1054 5.73479 27 6 27H16C16.2652 27 16.5196 27.1054 16.7071 27.2929C16.8946 27.4804 17 27.7348 17 28ZM22 12C22.0043 13.6671 21.6277 15.3131 20.899 16.8124C20.1702 18.3117 19.1085 19.6248 17.795 20.6513C17.5494 20.8395 17.3501 21.0815 17.2123 21.3585C17.0745 21.6356 17.0019 21.9406 17 22.25V23C17 23.5305 16.7893 24.0392 16.4142 24.4142C16.0391 24.7893 15.5304 25 15 25H7C6.46957 25 5.96086 24.7893 5.58579 24.4142C5.21072 24.0392 5 23.5305 5 23V22.25C4.9998 21.9443 4.92949 21.6426 4.79449 21.3683C4.65949 21.094 4.46339 20.8542 4.22125 20.6675C2.911 19.6471 1.85006 18.3419 1.11873 16.8509C0.387392 15.3599 0.00483199 13.722 3.34461e-06 12.0613C-0.0324967 6.10377 4.7825 1.14252 10.735 1.00002C12.2017 0.964675 13.6606 1.22309 15.0259 1.76004C16.3913 2.297 17.6354 3.10165 18.6851 4.12663C19.7347 5.15162 20.5688 6.37623 21.1381 7.72838C21.7074 9.08053 22.0004 10.5329 22 12ZM20 12C20.0004 10.7996 19.7606 9.61123 19.2947 8.50488C18.8289 7.39853 18.1464 6.39654 17.2875 5.55791C16.4286 4.71927 15.4106 4.06094 14.2935 3.62165C13.1763 3.18237 11.9826 2.97101 10.7825 3.00002C5.9075 3.11502 1.97375 7.17377 2 12.0488C2.00457 13.407 2.318 14.7464 2.91657 15.9656C3.51514 17.1849 4.38318 18.252 5.455 19.0863C5.93681 19.4608 6.32652 19.9406 6.59432 20.489C6.86211 21.0374 7.00088 21.6398 7 22.25V23H15V22.25C15.0014 21.638 15.1425 21.0344 15.4127 20.4853C15.6828 19.9361 16.0748 19.4559 16.5588 19.0813C17.6339 18.2411 18.5028 17.1663 19.0992 15.9391C19.6956 14.7118 20.0037 13.3645 20 12ZM17.9863 10.8325C17.727 9.38414 17.0301 8.04997 15.9896 7.00964C14.949 5.96931 13.6147 5.27276 12.1663 5.01377C12.0367 4.99194 11.9042 4.99583 11.7762 5.02522C11.6482 5.05462 11.5272 5.10893 11.4202 5.18508C11.3132 5.26122 11.2222 5.3577 11.1524 5.469C11.0827 5.58031 11.0356 5.70425 11.0138 5.83377C10.9919 5.96328 10.9958 6.09583 11.0252 6.22385C11.0546 6.35186 11.1089 6.47283 11.1851 6.57985C11.2612 6.68687 11.3577 6.77784 11.469 6.84757C11.5803 6.91731 11.7042 6.96444 11.8338 6.98627C13.905 7.33502 15.6625 9.09252 16.0138 11.1675C16.0533 11.4004 16.1741 11.6118 16.3546 11.7642C16.5351 11.9166 16.7638 12.0001 17 12C17.0565 11.9997 17.1129 11.9951 17.1688 11.9863C17.4301 11.9416 17.6631 11.795 17.8164 11.5787C17.9697 11.3623 18.0308 11.0939 17.9863 10.8325Z" fill="white"/>
</svg>
