<svg width="43" height="29" viewBox="0 0 43 29" fill="none" xmlns="http://www.w3.org/2000/svg">
<path d="M42.125 14.5C42.125 14.9061 41.9439 15.2956 41.6216 15.5828C41.2993 15.8699 40.8621 16.0312 40.4062 16.0312H2.59375C2.13791 16.0312 1.70074 15.8699 1.37841 15.5828C1.05608 15.2956 0.875 14.9061 0.875 14.5C0.875 14.0939 1.05608 13.7044 1.37841 13.4172C1.70074 13.1301 2.13791 12.9688 2.59375 12.9688H40.4062C40.8621 12.9688 41.2993 13.1301 41.6216 13.4172C41.9439 13.7044 42.125 14.0939 42.125 14.5ZM2.59375 3.78125H40.4062C40.8621 3.78125 41.2993 3.61992 41.6216 3.33276C41.9439 3.04559 42.125 2.65611 42.125 2.25C42.125 1.84389 41.9439 1.45441 41.6216 1.16724C41.2993 0.880078 40.8621 0.71875 40.4062 0.71875H2.59375C2.13791 0.71875 1.70074 0.880078 1.37841 1.16724C1.05608 1.45441 0.875 1.84389 0.875 2.25C0.875 2.65611 1.05608 3.04559 1.37841 3.33276C1.70074 3.61992 2.13791 3.78125 2.59375 3.78125ZM40.4062 25.2188H2.59375C2.13791 25.2188 1.70074 25.3801 1.37841 25.6672C1.05608 25.9544 0.875 26.3439 0.875 26.75C0.875 27.1561 1.05608 27.5456 1.37841 27.8328C1.70074 28.1199 2.13791 28.2812 2.59375 28.2812H40.4062C40.8621 28.2812 41.2993 28.1199 41.6216 27.8328C41.9439 27.5456 42.125 27.1561 42.125 26.75C42.125 26.3439 41.9439 25.9544 41.6216 25.6672C41.2993 25.3801 40.8621 25.2188 40.4062 25.2188Z" fill="#343330"/>
</svg>
