<svg width="25" height="26" viewBox="0 0 25 26" fill="none" xmlns="http://www.w3.org/2000/svg">
<path d="M12.5 25.5C10.7917 25.5 9.17708 25.1719 7.65625 24.5156C6.13542 23.8594 4.80729 22.9635 3.67188 21.8281C2.53646 20.6927 1.64062 19.3646 0.984375 17.8438C0.328125 16.3229 0 14.7083 0 13C0 11.2292 0.333333 9.58333 1 8.0625C1.66667 6.54167 2.57812 5.21875 3.73438 4.09375C4.89062 2.96875 6.24479 2.08854 7.79688 1.45312C9.34896 0.817708 11.0104 0.5 12.7812 0.5C14.4271 0.5 15.9896 0.776042 17.4688 1.32812C18.9479 1.88021 20.2448 2.64583 21.3594 3.625C22.474 4.60417 23.3594 5.76562 24.0156 7.10938C24.6719 8.45312 25 9.92708 25 11.5312C25 13.7812 24.3438 15.5573 23.0312 16.8594C21.7188 18.1615 19.9792 18.8125 17.8125 18.8125H15.4688C15.0938 18.8125 14.7708 18.9583 14.5 19.25C14.2292 19.5417 14.0938 19.8646 14.0938 20.2188C14.0938 20.7812 14.2448 21.2604 14.5469 21.6562C14.849 22.0521 15 22.5104 15 23.0312C15 23.8229 14.7812 24.4323 14.3438 24.8594C13.9062 25.2865 13.2917 25.5 12.5 25.5ZM5.21875 13.8125C5.63542 13.8125 6 13.6562 6.3125 13.3438C6.625 13.0312 6.78125 12.6667 6.78125 12.25C6.78125 11.8333 6.625 11.4688 6.3125 11.1562C6 10.8438 5.63542 10.6875 5.21875 10.6875C4.80208 10.6875 4.4375 10.8438 4.125 11.1562C3.8125 11.4688 3.65625 11.8333 3.65625 12.25C3.65625 12.6667 3.8125 13.0312 4.125 13.3438C4.4375 13.6562 4.80208 13.8125 5.21875 13.8125ZM9.15625 8.5C9.57292 8.5 9.9375 8.34375 10.25 8.03125C10.5625 7.71875 10.7188 7.35417 10.7188 6.9375C10.7188 6.52083 10.5625 6.15625 10.25 5.84375C9.9375 5.53125 9.57292 5.375 9.15625 5.375C8.73958 5.375 8.375 5.53125 8.0625 5.84375C7.75 6.15625 7.59375 6.52083 7.59375 6.9375C7.59375 7.35417 7.75 7.71875 8.0625 8.03125C8.375 8.34375 8.73958 8.5 9.15625 8.5ZM15.8438 8.5C16.2604 8.5 16.625 8.34375 16.9375 8.03125C17.25 7.71875 17.4062 7.35417 17.4062 6.9375C17.4062 6.52083 17.25 6.15625 16.9375 5.84375C16.625 5.53125 16.2604 5.375 15.8438 5.375C15.4271 5.375 15.0625 5.53125 14.75 5.84375C14.4375 6.15625 14.2812 6.52083 14.2812 6.9375C14.2812 7.35417 14.4375 7.71875 14.75 8.03125C15.0625 8.34375 15.4271 8.5 15.8438 8.5ZM19.9375 13.8125C20.3542 13.8125 20.7188 13.6562 21.0312 13.3438C21.3438 13.0312 21.5 12.6667 21.5 12.25C21.5 11.8333 21.3438 11.4688 21.0312 11.1562C20.7188 10.8438 20.3542 10.6875 19.9375 10.6875C19.5208 10.6875 19.1562 10.8438 18.8438 11.1562C18.5312 11.4688 18.375 11.8333 18.375 12.25C18.375 12.6667 18.5312 13.0312 18.8438 13.3438C19.1562 13.6562 19.5208 13.8125 19.9375 13.8125ZM12.5 23.625C12.7292 23.625 12.8906 23.5781 12.9844 23.4844C13.0781 23.3906 13.125 23.2396 13.125 23.0312C13.125 22.7396 12.974 22.4688 12.6719 22.2188C12.3698 21.9688 12.2188 21.4167 12.2188 20.5625C12.2188 19.6042 12.5312 18.7604 13.1562 18.0312C13.7812 17.3021 14.5729 16.9375 15.5312 16.9375H17.8125C19.3958 16.9375 20.6771 16.474 21.6562 15.5469C22.6354 14.6198 23.125 13.2812 23.125 11.5312C23.125 8.78125 22.0833 6.56771 20 4.89062C17.9167 3.21354 15.5104 2.375 12.7812 2.375C9.73958 2.375 7.16146 3.40104 5.04688 5.45312C2.93229 7.50521 1.875 10.0208 1.875 13C1.875 15.9375 2.91146 18.4427 4.98438 20.5156C7.05729 22.5885 9.5625 23.625 12.5 23.625Z" fill="black"/>
</svg>
