<svg width="57" height="57" viewBox="0 0 57 57" fill="none" xmlns="http://www.w3.org/2000/svg">
<path d="M56.625 28.5C56.625 29.1216 56.3781 29.7177 55.9385 30.1573C55.499 30.5968 54.9029 30.8438 54.2812 30.8438H30.8438V54.2812C30.8438 54.9029 30.5968 55.499 30.1573 55.9385C29.7177 56.3781 29.1216 56.625 28.5 56.625C27.8784 56.625 27.2823 56.3781 26.8427 55.9385C26.4032 55.499 26.1562 54.9029 26.1562 54.2812V30.8438H2.71875C2.09715 30.8438 1.50101 30.5968 1.06147 30.1573C0.621931 29.7177 0.375 29.1216 0.375 28.5C0.375 27.8784 0.621931 27.2823 1.06147 26.8427C1.50101 26.4032 2.09715 26.1562 2.71875 26.1562H26.1562V2.71875C26.1562 2.09715 26.4032 1.50101 26.8427 1.06147C27.2823 0.621931 27.8784 0.375 28.5 0.375C29.1216 0.375 29.7177 0.621931 30.1573 1.06147C30.5968 1.50101 30.8438 2.09715 30.8438 2.71875V26.1562H54.2812C54.9029 26.1562 55.499 26.4032 55.9385 26.8427C56.3781 27.2823 56.625 27.8784 56.625 28.5Z" fill="white"/>
</svg>
