<svg width="24" height="24" viewBox="0 0 24 24" fill="none" xmlns="http://www.w3.org/2000/svg">
<path d="M2.625 23.25C2.125 23.25 1.6875 23.0625 1.3125 22.6875C0.9375 22.3125 0.75 21.875 0.75 21.375V2.625C0.75 2.125 0.9375 1.6875 1.3125 1.3125C1.6875 0.9375 2.125 0.75 2.625 0.75H21.375C21.875 0.75 22.3125 0.9375 22.6875 1.3125C23.0625 1.6875 23.25 2.125 23.25 2.625V21.375C23.25 21.875 23.0625 22.3125 22.6875 22.6875C22.3125 23.0625 21.875 23.25 21.375 23.25H2.625ZM2.625 21.375H21.375V2.625H2.625V21.375ZM4.375 18.3438H19.6562L15.0625 12.2188L10.9375 17.5625L8.03125 13.5938L4.375 18.3438Z" fill="black"/>
</svg>
