<svg width="20" height="26" viewBox="0 0 20 26" fill="none" xmlns="http://www.w3.org/2000/svg">
<path d="M9.0625 16.5H10.9375V13.875H13.5625V12H10.9375V9.375H9.0625V12H6.4375V13.875H9.0625V16.5ZM0 21.75V19.875H2.5V10.375C2.5 8.625 3.01562 7.05729 4.04688 5.67188C5.07812 4.28646 6.4375 3.41667 8.125 3.0625V2.375C8.125 1.85417 8.30729 1.41146 8.67188 1.04688C9.03646 0.682292 9.47917 0.5 10 0.5C10.5208 0.5 10.9635 0.682292 11.3281 1.04688C11.6927 1.41146 11.875 1.85417 11.875 2.375V3.0625C13.5625 3.41667 14.9219 4.28646 15.9531 5.67188C16.9844 7.05729 17.5 8.625 17.5 10.375V19.875H20V21.75H0ZM10 25.5C9.3125 25.5 8.72396 25.2552 8.23438 24.7656C7.74479 24.276 7.5 23.6875 7.5 23H12.5C12.5 23.6875 12.2552 24.276 11.7656 24.7656C11.276 25.2552 10.6875 25.5 10 25.5ZM4.375 19.875H15.625V10.375C15.625 8.8125 15.0781 7.48438 13.9844 6.39062C12.8906 5.29688 11.5625 4.75 10 4.75C8.4375 4.75 7.10938 5.29688 6.01562 6.39062C4.92188 7.48438 4.375 8.8125 4.375 10.375V19.875Z" fill="black"/>
</svg>
