<svg width="4" height="20" viewBox="0 0 4 20" fill="none" xmlns="http://www.w3.org/2000/svg">
<path d="M1.99556 20C1.58185 20 1.22917 19.8527 0.9375 19.5581C0.645833 19.2635 0.5 18.9093 0.5 18.4956C0.5 18.0819 0.647312 17.7292 0.941937 17.4375C1.23654 17.1458 1.59071 17 2.00444 17C2.41815 17 2.77083 17.1473 3.0625 17.4419C3.35417 17.7365 3.5 18.0907 3.5 18.5044C3.5 18.9181 3.35269 19.2708 3.05806 19.5625C2.76346 19.8542 2.40929 20 1.99556 20ZM1.99556 11.5C1.58185 11.5 1.22917 11.3527 0.9375 11.0581C0.645833 10.7635 0.5 10.4093 0.5 9.99556C0.5 9.58185 0.647312 9.22917 0.941937 8.9375C1.23654 8.64583 1.59071 8.5 2.00444 8.5C2.41815 8.5 2.77083 8.64731 3.0625 8.94194C3.35417 9.23654 3.5 9.59071 3.5 10.0044C3.5 10.4181 3.35269 10.7708 3.05806 11.0625C2.76346 11.3542 2.40929 11.5 1.99556 11.5ZM1.99556 3C1.58185 3 1.22917 2.85269 0.9375 2.55806C0.645833 2.26346 0.5 1.90929 0.5 1.49556C0.5 1.08185 0.647312 0.729167 0.941937 0.4375C1.23654 0.145833 1.59071 0 2.00444 0C2.41815 0 2.77083 0.147313 3.0625 0.441938C3.35417 0.736543 3.5 1.09071 3.5 1.50444C3.5 1.91815 3.35269 2.27083 3.05806 2.5625C2.76346 2.85417 2.40929 3 1.99556 3Z" fill="black"/>
</svg>
