<svg width="30" height="29" viewBox="0 0 30 29" fill="none" xmlns="http://www.w3.org/2000/svg">
<path d="M24.875 25.3448L16.6562 17.4C16.0312 17.9236 15.3025 18.3314 14.47 18.6234C13.6376 18.9154 12.7517 19.0615 11.8125 19.0615C9.55912 19.0615 7.65203 18.3062 6.09122 16.7958C4.53041 15.2854 3.75 13.4628 3.75 11.3281C3.75 9.1934 4.53125 7.37083 6.09375 5.86041C7.65625 4.35 9.54688 3.59479 11.7656 3.59479C13.9844 3.59479 15.8698 4.35 17.4219 5.86041C18.974 7.37083 19.75 9.19491 19.75 11.3327C19.75 12.1956 19.6042 13.0299 19.3125 13.8354C19.0208 14.641 18.5833 15.3962 18 16.101L26.25 24.0156L24.875 25.3448ZM11.7812 17.249C13.474 17.249 14.9128 16.67 16.0977 15.512C17.2826 14.354 17.875 12.9594 17.875 11.3281C17.875 9.69687 17.2826 8.30225 16.0977 7.14427C14.9128 5.98628 13.474 5.40729 11.7812 5.40729C10.0712 5.40729 8.61762 5.98628 7.42056 7.14427C6.22352 8.30225 5.625 9.69687 5.625 11.3281C5.625 12.9594 6.22352 14.354 7.42056 15.512C8.61762 16.67 10.0712 17.249 11.7812 17.249Z" fill="black"/>
</svg>
